<svg id="SvgjsSvg1031" width="288" height="288" xmlns="http://www.w3.org/2000/svg" version="1.1" xmlns:xlink="http://www.w3.org/1999/xlink" xmlns:svgjs="http://svgjs.com/svgjs"><defs id="SvgjsDefs1032"></defs><g id="SvgjsG1033"><svg xmlns="http://www.w3.org/2000/svg" width="288" height="288" enable-background="new 0 0 511.95 511.95" viewBox="0 0 511.95 511.95"><path d="m479.095 177.574c-11.917-11.917-27.099-19.372-43.525-21.568l60.091-60.091-21.213-21.213-20.413 20.413c-2.199-16.421-9.653-31.597-21.568-43.51l-32.854-32.855-38.361 38.362c-29.639 29.64-29.639 77.865 0 107.504l11.641 11.641-29.965 29.965c-2.142-15.937-9.31-31.322-21.533-43.545l-32.854-32.854-38.361 38.361c-29.639 29.639-29.639 77.864 0 107.504l11.641 11.641-29.931 29.931c-2.199-16.421-9.653-31.597-21.567-43.51l-32.854-32.854-38.361 38.36c-29.64 29.639-29.64 77.866 0 107.505l11.64 11.64-49.338 49.338c-20.305 20.304-53.341 20.304-73.645-.001l-6.551-6.551-21.214 21.216 6.551 6.55c16 16.001 37.018 24.001 58.035 24.001 21.018 0 42.035-8 58.036-24.001l9.667-9.667 11.649 11.649c14.358 14.358 33.448 22.266 53.753 22.266s39.395-7.907 53.752-22.266l38.36-38.361-32.853-32.854c-11.918-11.918-27.1-19.373-43.526-21.569l29.938-29.938 11.649 11.649c14.358 14.358 33.447 22.266 53.752 22.266s39.395-7.907 53.752-22.266l38.361-38.361-32.854-32.854c-11.918-11.917-27.1-19.373-43.527-21.569l29.938-29.938 11.649 11.649c14.358 14.357 33.447 22.265 53.752 22.265 20.306 0 39.395-7.907 53.753-22.265l38.361-38.361zm-84.989-22.531-11.641-11.641c-17.941-17.941-17.941-47.136 0-65.078l17.148-17.147 11.641 11.641c8.691 8.691 13.479 20.247 13.479 32.539 0 12.289-4.786 23.845-13.475 32.536zm-122.714 99.432c-17.941-17.942-17.941-47.137 0-65.078l17.148-17.148 11.642 11.641c17.938 17.939 17.941 47.127.009 65.069l-17.157 17.157zm-111.072 111.074c-17.942-17.942-17.942-47.137 0-65.079l17.148-17.147 11.641 11.641c8.691 8.691 13.478 20.247 13.478 32.539 0 12.285-4.781 23.834-13.463 32.523l-17.164 17.164zm87.057 67.025-17.148 17.148c-8.692 8.691-20.248 13.479-32.539 13.479-12.292 0-23.848-4.787-32.54-13.479l-11.641-11.641 17.148-17.148c8.692-8.691 20.248-13.479 32.54-13.479s23.847 4.787 32.539 13.479zm111.074-111.073-17.148 17.148c-8.691 8.691-20.247 13.479-32.539 13.479s-23.848-4.787-32.539-13.479l-11.641-11.641 17.147-17.148c8.691-8.691 20.248-13.478 32.54-13.478 12.291 0 23.848 4.786 32.539 13.478zm93.924-93.924c-8.691 8.691-20.248 13.478-32.54 13.478-12.291 0-23.848-4.786-32.539-13.478l-11.641-11.642 17.148-17.148c8.691-8.691 20.248-13.478 32.539-13.478 12.292 0 23.848 4.786 32.539 13.478l11.642 11.642z" fill="#3dc257" class="color000 svgShape"></path></svg></g></svg>